<?xml version="1.0" encoding="utf-8"?>
<!-- Generator: Adobe Illustrator 22.0.1, SVG Export Plug-In . SVG Version: 6.00 Build 0)  -->
<!DOCTYPE svg PUBLIC "-//W3C//DTD SVG 1.1 Basic//EN" "http://www.w3.org/Graphics/SVG/1.1/DTD/svg11-basic.dtd" [
	<!ENTITY st0 "fill:#87B537;">
	<!ENTITY st1 "fill:#F9FBF5;">
]>
<svg version="1.1" baseProfile="basic" id="layer" xmlns="http://www.w3.org/2000/svg" xmlns:xlink="http://www.w3.org/1999/xlink"
	 x="0px" y="0px" viewBox="0 0 80 80" xml:space="preserve">
<g>
	<path style="&st0;" d="M47.5825005,22.33321c-2.2622681,0.0001717-4.4444084,1.1804543-5.627182,3.2347488
		c0,0.0931015,0,0.0931015,0,0.0931015c-0.3075447,0.5381927-0.805542,0.8859291-1.389164,0.8859291
		c-0.1231613,0-0.2501411-0.0154877-0.3799438-0.0479393c-0.5681496-0.1228447-1.1360779-0.1823654-1.6967125-0.1823654
		c-2.8388519,0-5.4851799,1.5270882-6.9625149,4.0929832c-1.9553089,3.4450722-1.0241947,7.8212357,2.141531,10.2421112
		c0.55867,0.4655495,0.7448921,1.3035393,0.4655495,1.8621902c-0.0931015,0.2793236-0.186203,0.4655457-0.2793274,0.7448883
		c-0.1862221,0.744873-0.8379898,1.2104187-1.5828629,1.2104187c-2.3277531,0-4.5623875,1.3035393-5.6797237,3.3519707
		c-1.7690868,3.1657295-0.6517696,7.1694679,2.5139771,8.9385529c1.0491943,0.6171761,2.1899433,0.9069939,3.3113689,0.9069939
		c2.2622681,0,4.4444084-1.1804581,5.6271858-3.2347488c0-0.0931015,0-0.0931015,0-0.0931015
		c0.3075447-0.5381927,0.8055382-0.8859329,1.389164-0.8859291c0.1231575,0,0.2501373,0.0154839,0.37994,0.0479393
		c0.5681496,0.1228409,1.1360588,0.1823578,1.6966934,0.1823578c2.8388557,0,5.4852028-1.5270805,6.9625359-4.0929794
		c1.955307-3.4450684,1.0242157-7.8212357-2.1415329-10.2421112c-0.5586662-0.4655457-0.7448921-1.3035393-0.4655457-1.955307
		c0.0931015-0.2793236,0.1862221-0.558651,0.2793236-0.744873c0.1862221-0.7448921,0.8379936-1.2104378,1.5828629-1.2104378
		c2.327755,0,4.5623894-1.3035393,5.6797256-3.3519478c1.7690849-3.072628,0.6517677-7.0763664-2.5139771-8.8454514
		C49.844677,22.6230278,48.7039261,22.3331261,47.5825005,22.33321 M39.6275635,23.1470833
		c1.8852158-2.6149788,4.9221001-4.0780296,8.0214806-4.0780296c1.6459923,0,3.309761,0.4127426,4.8276901,1.2847481
		c4.7486115,2.7001801,6.4245949,8.6592255,3.7244148,13.4078178c-1.3966599,2.327755-3.6312943,4.0037384-6.1452713,4.6555099
		c2.9795227,3.5381699,3.5381737,8.6592255,1.2104378,12.7560654c-2.0325203,3.6415863-5.7595749,5.7425995-9.7800941,5.7425995
		c-0.3998413,0-0.8026237-0.0207825-1.2068901-0.0628929c-1.8852158,2.6149902-4.9221039,4.0780449-8.0214882,4.0780449
		c-1.645998,0-3.3097649-0.4127388-4.8276997-1.2847443c-4.7486115-2.7001801-6.4245758-8.6592255-3.7243958-13.4078369
		c1.3966599-2.3277359,3.6312943-4.0037193,6.1452713-4.6554909c-2.9795246-3.5381927-3.5381927-8.6592293-1.2104378-12.7560692
		c2.0326366-3.6418266,5.759306-5.742897,9.780138-5.7426147C38.8202934,23.0842209,39.2235718,23.1049995,39.6275635,23.1470833
		 M79.9441986,0.0558014H-0.0373046v79.9815063h79.9815063V0.0558014"/>
	<path style="&st1;" d="M40.5661545,26.5469894c0.583622,0,1.0816193-0.3477364,1.389164-0.8859291c0,0,0,0,0-0.0931015
		c1.1827736-2.0542946,3.3649139-3.2345772,5.627182-3.2347488c1.1214256-0.0000839,2.2621765,0.2898178,3.3113708,0.9069939
		c3.1657448,1.7690849,4.283062,5.7728233,2.5139771,8.8454514c-1.1173363,2.0484085-3.3519707,3.3519478-5.6797256,3.3519478
		c-0.7448692,0-1.3966408,0.4655457-1.5828629,1.2104378c-0.0931015,0.1862221-0.1862221,0.4655495-0.2793236,0.744873
		c-0.2793465,0.6517677-0.0931206,1.4897614,0.4655457,1.955307c3.1657486,2.4208755,4.0968399,6.7970428,2.1415329,10.2421112
		c-1.4773331,2.5658989-4.1236801,4.0929794-6.9625359,4.0929794c-0.5606346,0-1.1285439-0.0595169-1.6966934-0.1823578
		c-0.1298027-0.0324554-0.2567825-0.0479393-0.37994-0.0479393c-0.5836258-0.0000038-1.0816193,0.3477364-1.389164,0.8859291
		c0,0,0,0,0,0.0931015c-1.1827774,2.0542908-3.3649178,3.2347488-5.6271858,3.2347488
		c-1.1214256,0-2.2621746-0.2898178-3.3113689-0.9069939c-3.1657467-1.7690849-4.2830639-5.7728233-2.5139771-8.9385529
		c1.1173363-2.0484314,3.3519707-3.3519707,5.6797237-3.3519707c0.744873,0,1.3966408-0.4655457,1.5828629-1.2104187
		c0.0931244-0.2793427,0.1862259-0.4655647,0.2793274-0.7448883c0.2793427-0.558651,0.0931206-1.3966408-0.4655495-1.8621902
		c-3.1657257-2.4208755-4.0968399-6.797039-2.141531-10.2421112c1.477335-2.5658951,4.1236629-4.0929832,6.9625149-4.0929832
		c0.5606346,0,1.1285629,0.0595207,1.6967125,0.1823654C40.3160133,26.5315018,40.4429932,26.5469894,40.5661545,26.5469894
		 M47.6609268,21.7494354c-2.5042038,0.0001373-4.9398117,1.3287544-6.2642784,3.725399
		c-0.1862221,0.372448-0.6517677,0.55867-1.0242157,0.55867c-0.5892105-0.1178436-1.1781425-0.1750793-1.7599792-0.1750793
		c-3.0959511,0-5.9834175,1.6217346-7.5510178,4.3650208c-2.141531,3.7243958-1.1173153,8.4730072,2.2346535,11.0800858
		c0.3724251,0.2793427,0.5586472,0.7448883,0.3724251,1.2104378l-0.2793236,0.8379898
		c-0.1862221,0.4655495-0.55867,0.744873-1.0242157,0.744873c-2.6070786,0-4.9348316,1.3966599-6.2383709,3.6312943
		c-0.9310951,1.5828819-1.1173172,3.5381927-0.6517715,5.4003792c0.4655685,1.7690849,1.6759853,3.3519707,3.3519707,4.283062
		c1.1173763,0.6341858,2.3321209,0.9352493,3.5310268,0.9352493c2.4975319,0,4.9243965-1.3077469,6.2455177-3.6354294v-0.0931206
		c0.1551933-0.3879738,0.5043068-0.581955,0.8858185-0.5819283c0.0762787,0.0000038,0.1539268,0.0077667,0.2314987,0.0232811
		c0.5892143,0.1178398,1.1781158,0.1750717,1.7599564,0.1750717c3.0959587,0,5.9834557-1.6217461,7.5510406-4.3650322
		c2.1415329-3.7243958,1.1173363-8.4730072-2.2346344-11.0800858c-0.3724442-0.2793427-0.5586662-0.7448921-0.3724442-1.2104378
		l0.1862221-0.744873c0.1862221-0.4655457,0.55867-0.7448883,1.0242157-0.7448883
		c2.6070786,0,5.027935-1.3966408,6.2383728-3.6312752c1.9553108-3.4450722,0.744873-7.8212547-2.7001991-9.7765656
		C50.0617065,22.0506897,48.8536835,21.7493706,47.6609268,21.7494354 M39.6275635,23.798851h0.3724442l0.186203-0.2793236
		c1.8300362-2.5010529,4.6585274-3.842907,7.54422-3.842907c1.5189285,0,3.0541878,0.3721085,4.46698,1.1427269
		c4.4692841,2.513958,6.0521469,8.1005592,3.5381699,12.5698471c-1.3035393,2.1415291-3.3519478,3.7243958-5.7728043,4.3761635
		l-0.9311142,0.2793236l0.6517715,0.7448921c2.7933006,3.4450722,3.2588654,8.2867813,1.1173134,12.1043015
		c-1.9400902,3.3740921-5.4848061,5.3726006-9.2498856,5.3726006c-0.390892,0-0.7843399-0.0215569-1.1784286-0.0653419h-0.3724251
		l-0.1862221,0.3724442c-1.7520638,2.4770508-4.5621033,3.8171082-7.4390259,3.8171082
		c-1.5568562,0-3.1336269-0.3926735-4.5721722-1.2100296c-4.469286-2.513958-6.0521488-8.100563-3.5381718-12.5698471
		c1.3035393-2.1415329,3.3519497-3.7243958,5.7728062-4.3761635l0.9311123-0.2793274l-0.6517696-0.7448883
		c-2.7933006-3.4450722-3.2588482-8.2867851-1.1173153-12.1043015c1.9401093-3.3740959,5.4848518-5.3726654,9.2499313-5.3726158
		C38.8400726,23.7335167,39.2334747,23.7550659,39.6275635,23.798851 M47.649044,19.0690536
		c-3.0993805,0-6.1362648,1.4630508-8.0214806,4.0780296c-0.4039917-0.0420837-0.8072701-0.0628624-1.2068443-0.0628929
		c-4.0208321-0.0002823-7.7475014,2.1007881-9.780138,5.7426147c-2.327755,4.0968399-1.7690868,9.2178764,1.2104378,12.7560692
		c-2.5139771,0.6517715-4.7486115,2.327755-6.1452713,4.6554909c-2.7001801,4.7486115-1.0242157,10.7076569,3.7243958,13.4078369
		c1.5179348,0.8720055,3.1817017,1.2847443,4.8276997,1.2847443c3.0993843,0,6.1362724-1.4630547,8.0214882-4.0780449
		c0.4042664,0.0421104,0.8070488,0.0628929,1.2068901,0.0628929c4.0205193,0,7.7475739-2.1010132,9.7800941-5.7425995
		c2.3277359-4.0968399,1.7690849-9.2178955-1.2104378-12.7560654c2.5139771-0.6517715,4.7486115-2.327755,6.1452713-4.6555099
		c2.7001801-4.7485924,1.0241966-10.7076378-3.7244148-13.4078178
		C50.9588051,19.4817963,49.2950363,19.0690536,47.649044,19.0690536"/>
	<path style="&st1;" d="M40.3724327,26.0335045c0.372448,0,0.8379936-0.1862221,1.0242157-0.55867
		c1.3244667-2.3966446,3.7600746-3.7252617,6.2642784-3.725399c1.1927567-0.0000648,2.4007797,0.3012543,3.5122681,0.9320984
		c3.4450722,1.9553108,4.6555099,6.3314934,2.7001991,9.7765656c-1.2104378,2.2346344-3.6312943,3.6312752-6.2383728,3.6312752
		c-0.4655457,0-0.8379936,0.2793427-1.0242157,0.7448883l-0.1862221,0.744873c-0.1862221,0.4655457,0,0.9310951,0.3724442,1.2104378
		c3.3519707,2.6070786,4.3761673,7.35569,2.2346344,11.0800858c-1.567585,2.7432861-4.4550819,4.3650322-7.5510406,4.3650322
		c-0.5818405,0-1.170742-0.0572319-1.7599564-0.1750717c-0.0775719-0.0155144-0.15522-0.0232773-0.2314987-0.0232811
		c-0.3815117-0.0000267-0.7306252,0.1939545-0.8858185,0.5819283v0.0931206
		c-1.3211212,2.3276825-3.7479858,3.6354294-6.2455177,3.6354294c-1.1989059,0-2.4136505-0.3010635-3.5310268-0.9352493
		c-1.6759853-0.9310913-2.8864021-2.5139771-3.3519707-4.283062c-0.4655457-1.8621864-0.2793236-3.8174973,0.6517715-5.4003792
		c1.3035393-2.2346344,3.6312923-3.6312943,6.2383709-3.6312943c0.4655457,0,0.8379936-0.2793236,1.0242157-0.744873
		l0.2793236-0.8379898c0.1862221-0.4655495,0-0.9310951-0.3724251-1.2104378
		c-3.3519688-2.6070786-4.3761845-7.35569-2.2346535-11.0800858c1.5676003-2.7432861,4.4550667-4.3650208,7.5510178-4.3650208
		C39.1942902,25.8584251,39.7832222,25.9156609,40.3724327,26.0335045 M47.7304306,19.6766205
		c-2.8856926,0-5.7141838,1.3418541-7.54422,3.842907l-0.186203,0.2793236h-0.3724442
		c-0.3940887-0.0437851-0.7874908-0.0653343-1.1783829-0.0653381c-3.7650795-0.0000496-7.3098221,1.9985199-9.2499313,5.3726158
		c-2.1415329,3.8175163-1.6759853,8.6592293,1.1173153,12.1043015l0.6517696,0.7448883l-0.9311123,0.2793274
		c-2.4208565,0.6517677-4.4692669,2.2346306-5.7728062,4.3761635c-2.5139771,4.4692841-0.9311142,10.0558891,3.5381718,12.5698471
		c1.4385452,0.8173561,3.015316,1.2100296,4.5721722,1.2100296c2.8769226,0,5.6869621-1.3400574,7.4390259-3.8171082
		l0.1862221-0.3724442h0.3724251c0.3940887,0.0437851,0.7875366,0.0653419,1.1784286,0.0653419
		c3.7650795,0,7.3097954-1.9985085,9.2498856-5.3726006c2.141552-3.8175201,1.6759872-8.6592293-1.1173134-12.1043015
		l-0.6517715-0.7448921l0.9311142-0.2793236c2.4208565-0.6517677,4.469265-2.2346344,5.7728043-4.3761635
		c2.5139771-4.4692879,0.9311142-10.0558891-3.5381699-12.5698471
		C50.7846184,20.0487289,49.2493591,19.6766205,47.7304306,19.6766205"/>
</g>
<g>
</g>
</svg>
