<?xml version="1.0" encoding="UTF-8" standalone="no"?>
<!DOCTYPE svg PUBLIC "-//W3C//DTD SVG 1.1//EN" "http://www.w3.org/Graphics/SVG/1.1/DTD/svg11.dtd">
<svg width="100%" height="100%" viewBox="0 0 500 500" version="1.1" xmlns="http://www.w3.org/2000/svg" xmlns:xlink="http://www.w3.org/1999/xlink" xml:space="preserve" xmlns:serif="http://www.serif.com/" style="fill-rule:evenodd;clip-rule:evenodd;stroke-linejoin:round;stroke-miterlimit:2;">
    <g>
        <g transform="matrix(2.60891,0,0,3.36969,-219.987,-427.51)">
            <rect x="84.322" y="126.869" width="191.651" height="148.382" style="fill:rgb(9,81,173);"/>
        </g>
        <g transform="matrix(5.69868,0,0,5.69868,137.394,124.942)">
            <path d="M39.5,11.9L39.52,11.91L39.52,31.86C39.505,32.559 39.125,33.201 38.52,33.55L20.71,43.74C20.672,43.764 20.632,43.784 20.59,43.8L20.48,43.86L19.99,43.86C19.824,43.887 19.656,43.887 19.49,43.86L19,43.86L18.88,43.8L18.77,43.74L1,33.57C0.395,33.221 0.015,32.579 0,31.88L0,11.88L0.18,11.88C0.18,11.84 0.185,11.82 0.18,11.77C0.175,11.72 0.175,11.67 0.18,11.62C0.176,11.583 0.176,11.547 0.18,11.51L0.18,11.37C0.176,11.337 0.176,11.303 0.18,11.27C0.176,11.223 0.176,11.177 0.18,11.13C0.203,11.1 0.22,11.066 0.23,11.03C0.25,10.988 0.273,10.948 0.3,10.91C0.316,10.875 0.336,10.841 0.36,10.81C0.383,10.771 0.41,10.734 0.44,10.7L0.52,10.61L0.6,10.51L0.7,10.43L0.8,10.34L0.9,10.27L1,10.21L18.8,0.25C19.392,-0.07 20.108,-0.07 20.7,0.25L38.52,10.23L38.62,10.29L38.72,10.36L38.82,10.45L38.92,10.53L39,10.63L39.24,10.72L39.32,10.83L39.38,10.93C39.407,10.968 39.43,11.008 39.45,11.05C39.46,11.086 39.477,11.12 39.5,11.15C39.504,11.197 39.504,11.243 39.5,11.29C39.504,11.323 39.504,11.357 39.5,11.39L39.5,11.53C39.504,11.567 39.504,11.603 39.5,11.64C39.505,11.69 39.505,11.74 39.5,11.79L39.5,11.9ZM35.75,13.82L35.57,13.75L35.57,13.66C35.57,13.63 35.565,13.58 35.57,13.55C35.575,13.52 35.575,13.49 35.57,13.46L35.57,13.26C35.574,13.223 35.574,13.187 35.57,13.15C35.57,13.07 35.62,13.1 35.57,13.07C35.52,13.04 35.523,12.997 35.52,12.97C35.517,12.943 35.517,12.917 35.52,12.89L35.46,12.8L35.39,12.73L35.32,12.65C35.298,12.622 35.271,12.598 35.24,12.58L35.16,12.51L35.08,12.45L35,12.45L20.54,4.37C20.06,4.111 19.48,4.111 19,4.37L4.52,12.56L4.44,12.56L4.36,12.62L4.28,12.69C4.249,12.708 4.222,12.732 4.2,12.76L4.13,12.84L4.06,12.91L4,13L3.75,13.14C3.75,13.17 3.754,13.183 3.75,13.22C3.746,13.257 3.746,13.293 3.75,13.33L3.75,13.42C3.75,13.45 3.755,13.5 3.75,13.53C3.745,13.56 3.745,13.59 3.75,13.62L3.75,30C3.753,30.561 4.054,31.08 4.54,31.36L18.98,39.62L19.07,39.62L19.16,39.67L20.36,39.67L20.45,39.62L20.54,39.62L35,31.36C35.47,31.07 35.755,30.553 35.75,30L35.75,13.82ZM16.45,23.8C16.544,23.858 16.604,23.959 16.61,24.07L16.61,27.43C16.61,27.53 16.54,27.53 16.45,27.53L6.85,22.22C6.756,22.157 6.696,22.053 6.69,21.94L6.69,18.58C6.69,18.48 6.76,18.43 6.85,18.48L16.45,23.8ZM16.45,30.75C16.537,30.806 16.595,30.898 16.61,31L16.61,34.39C16.61,34.49 16.54,34.49 16.45,34.49L6.85,29.17C6.756,29.112 6.696,29.011 6.69,28.9L6.69,25.54C6.69,25.44 6.76,25.39 6.85,25.44L16.45,30.75Z" style="fill:white;"/>
        </g>
    </g>
</svg>
