<?xml version="1.0" encoding="utf-8"?>
<!-- Generator: Adobe Illustrator 22.0.1, SVG Export Plug-In . SVG Version: 6.00 Build 0)  -->
<!DOCTYPE svg PUBLIC "-//W3C//DTD SVG 1.1 Basic//EN" "http://www.w3.org/Graphics/SVG/1.1/DTD/svg11-basic.dtd">
<svg version="1.1" baseProfile="basic" id="layer" xmlns="http://www.w3.org/2000/svg" xmlns:xlink="http://www.w3.org/1999/xlink"
	 x="0px" y="0px" viewBox="0 0 80 80" xml:space="preserve">
<style type="text/css">
	.st0{fill:#F2F2F2;}
	.st1{fill:#FF5577;}
	.st2{opacity:0.4;fill:#808088;}
</style>
<g>
	<rect x="-0.0373001" y="0.055809" class="st0" width="79.9814911" height="79.9814911"/>
	<path class="st1" d="M55.6424789,24.5437393c-4.9348297-4.0037308-12.1974106-3.072628-16.2011414,1.8622017l-5.4003792,6.7039185
		c-0.9310989,1.2104301-0.7448807,2.8864098,0.3724403,3.8175087c0.4655495,0.3724403,1.117321,0.6517715,1.7690887,0.6517715
		h15.828701c2.234642,0,4.0968399,1.5828705,4.5623894,3.7243996l0.0931091,0.4655495l0.7448807-0.9310989
		C61.3221893,35.810051,60.5773087,28.5474701,55.6424789,24.5437393z"/>
	<path class="st2" d="M24.3575211,55.4562607c4.9348297,4.0037308,12.1974106,3.0726318,16.2011375-1.8621979l5.400383-6.7039223
		c0.9310989-1.2104301,0.7448769-2.8864098-0.3724403-3.8175087c-0.4655533-0.3724403-1.0242119-0.6517715-1.6759834-0.6517715
		H28.0819206c-2.234642,0-4.0968418-1.5828705-4.5623913-3.7243996l-0.093111-0.4655495l-0.7448788,0.9310989
		C18.6778107,44.189949,19.4226894,51.4525299,24.3575211,55.4562607z"/>
</g>
</svg>
