<?xml version="1.0" encoding="UTF-8" standalone="no"?>
<!DOCTYPE svg PUBLIC "-//W3C//DTD SVG 1.1//EN" "http://www.w3.org/Graphics/SVG/1.1/DTD/svg11.dtd">
<svg width="100%" height="100%" viewBox="0 0 500 500" version="1.1" xmlns="http://www.w3.org/2000/svg" xmlns:xlink="http://www.w3.org/1999/xlink" xml:space="preserve" xmlns:serif="http://www.serif.com/" style="fill-rule:evenodd;clip-rule:evenodd;stroke-linejoin:round;stroke-miterlimit:2;">
    <g transform="matrix(2.60891,0,0,3.36969,-219.987,-427.51)">
        <rect x="84.322" y="126.869" width="191.651" height="148.382" style="fill:rgb(0,133,165);"/>
    </g>
    <g transform="matrix(5.41667,0,0,5.41667,76.6667,76.6667)">
        <path d="M56,8L56,13L60,13L60,22C60,25.309 58.638,29.846 56.832,32.555C55.214,34.982 53.227,37.044 50.924,38.684L50.109,39.264L50.088,39.235L47,56L16,56L13.294,38.863L12.528,38.281C10.434,36.685 8.623,34.749 7.168,32.555C5.362,29.846 4,25.309 4,22L4,13L8,13L8,8L56,8ZM51.598,20L12.341,20L17.709,54L45.335,54L51.598,20ZM24.5,37C27.517,37 30,39.483 30,42.5C30,45.517 27.517,48 24.5,48C21.483,48 19,45.517 19,42.5C19,39.483 21.483,37 24.5,37ZM38.5,37L44,47L33,47L38.5,37ZM58,15L56,15L56,20L53.632,20L50.613,36.387C52.377,34.984 53.913,33.317 55.168,31.445C56.756,29.063 58,24.915 58,22L58,15ZM8,15L6,15L6,22C6,24.915 7.244,29.063 8.832,31.445C9.951,33.121 11.297,34.633 12.832,35.938L10.315,20L8,20L8,15ZM37,24L37,34L27,34L27,24L37,24ZM53.761,10.238L10.238,10.238L10.238,17.762L53.761,17.762L53.761,10.238Z" style="fill:white;fill-rule:nonzero;"/>
    </g>
</svg>
