<?xml version="1.0" encoding="utf-8"?>
<!-- Generator: Adobe Illustrator 22.0.1, SVG Export Plug-In . SVG Version: 6.00 Build 0)  -->
<!DOCTYPE svg PUBLIC "-//W3C//DTD SVG 1.1 Basic//EN" "http://www.w3.org/Graphics/SVG/1.1/DTD/svg11-basic.dtd">
<svg version="1.1" baseProfile="basic" id="layer" xmlns="http://www.w3.org/2000/svg" xmlns:xlink="http://www.w3.org/1999/xlink"
	 x="0px" y="0px" viewBox="0 0 80 80" xml:space="preserve">
<style type="text/css">
	.st0{fill:#F4AE00;}
	.st1{fill:#FEFBF2;}
</style>
<g>
	<path class="st0" d="M51.4525375,47.3556786c-1.3035393,0-2.327755,1.0242195-2.327755,2.327755
		c0,1.3035431,1.0242157,2.327755,2.327755,2.327755s2.3277359-1.0242119,2.3277359-2.327755
		C53.7802734,48.3798981,52.7560768,47.3556786,51.4525375,47.3556786 M27.0577164,45.7728157
		c-0.3724442,0-0.7448902,0.2793236-0.7448902,0.7448921v6.3314743c0,0.3724442,0.2793236,0.744873,0.7448902,0.744873
		c0.372427,0,0.7448711-0.2793274,0.7448711-0.744873v-6.3314743
		C27.8025875,46.1452637,27.5232639,45.7728157,27.0577164,45.7728157 M30.223444,45.7728157
		c-0.3724251,0-0.7448711,0.2793236-0.7448711,0.7448921v6.3314743c0,0.3724442,0.2793236,0.744873,0.7448711,0.744873
		c0.3724461,0,0.7448902-0.2793274,0.7448902-0.744873v-6.3314743
		C30.9683342,46.1452637,30.6889915,45.7728157,30.223444,45.7728157 M33.2960892,45.7728157
		c-0.3724442,0-0.7448921,0.2793236-0.7448921,0.7448921v6.3314743c0,0.3724442,0.2793236,0.744873,0.744873,0.744873
		c0.3724442,0,0.7448921-0.2793274,0.7448921-0.744873v-6.3314743
		C34.0409622,46.1452637,33.7616348,45.7728157,33.2960892,45.7728157 M36.4618149,45.7728157
		c-0.3724442,0-0.7448692,0.2793236-0.7448692,0.7448921v6.3314743c0,0.3724442,0.3724251,0.744873,0.7448692,0.744873
		c0.372448,0,0.7448921-0.2793274,0.7448921-0.744873v-6.3314743C37.206707,46.0521393,36.8342628,45.7728157,36.4618149,45.7728157
		 M21.8435593,59.5531006c-0.8379917,0-1.5828838-0.7448883-1.5828838-1.5828629V41.3966522
		c0-0.8379936,0.7448921-1.5828629,1.5828838-1.5828629H58.156456c0.8379745,0,1.5828667,0.7448692,1.5828667,1.5828629v16.5735855
		c0,0.8379898-0.7448921,1.5828629-1.5828667,1.5828629H21.8435593 M23.5195236,38.2309036
		c-0.3724251,0-0.6517696-0.2793236-0.7448692-0.5586472l-0.4655476-2.327755c0-0.0931206,0-0.1862221,0-0.2793236
		c0-0.6517677,0.3724251-1.2104378,1.0241947-1.3966599l6.8901424-1.8621864
		c-1.7690868-1.0242157-2.9795036-3.5381927-2.9795036-6.3314972c0-2.7001801,2.2346325-4.9348297,4.9348125-4.9348297
		c1.0242157,0,2.0484314,0.2793236,2.7933006,0.8379898c-0.9310913,1.1173172-1.3966408,2.5139771-1.3966408,4.0968399
		c0,2.0484314,0.558651,4.0037422,1.5828629,5.4934845l-4.4692841,1.2104378
		c-1.2104187,0.4655457-2.0484104,1.5828629-2.0484104,2.8864021c0,0.1862221,0,0.3724442,0.0931015,0.6517906l0.4655666,2.4208527
		c-0.0931225,0-0.000021,0-0.000021,0.0931015H23.5195236 M31.4338818,38.2309036
		c-0.3724461,0-0.6517696-0.2793236-0.7448902-0.5586472l-0.5586491-2.327755c0-0.0931206,0-0.1862221,0-0.2793236
		c0-0.6517677,0.3724461-1.2104378,1.0242157-1.3966599l6.8901234-1.8621864
		c-1.7690887-1.1173401-2.9795074-3.5381927-2.9795074-6.4245987c0-2.7001991,2.2346344-4.9348297,4.9348335-4.9348297
		c2.7001801,0,4.9348145,2.2346306,4.9348145,4.9348297c0,2.7933044-1.2104187,5.3072586-2.9795036,6.3314743l6.8901405,1.8622093
		c0.6517487,0.2793236,1.0241966,0.8379936,1.0241966,1.3966408c0,0.0931206,0,0.1862221,0,0.2793236l-0.5586472,2.4208755
		c-0.0931244,0.2793236-0.372448,0.5586472-0.7448921,0.5586472h-8.5661087H31.4338818 M50.8938713,38.1378021
		c0-0.0931206,0.0931015-0.0931206,0.0931015-0.1862221l0.4655647-2.4208565c0-0.1862221,0.0931015-0.3724442,0.0931015-0.6517677
		c0-1.3035393-0.8379898-2.4208565-2.0484085-2.886425l-4.5624084-1.1173134
		c1.0242157-1.4897652,1.5828819-3.3519516,1.5828819-5.4934845c0-1.4897614-0.5586662-2.9795227-1.3966599-4.0968399
		c0.8379936-0.5586662,1.7690849-0.8379898,2.7933006-0.8379898c2.7002029,0,4.9348335,2.2346306,4.9348335,4.9348297
		c0,2.7933044-1.2104378,5.3072586-2.9795227,6.3314743l6.8901405,1.8622093
		c0.55867,0.2793236,1.0242157,0.8379936,1.0242157,1.3966408c0,0.0931206,0,0.1862221,0,0.2793236l-0.4655457,2.327755
		c-0.0931206,0.3724442-0.372448,0.5586662-0.7448921,0.5586662H50.8938713 M79.9441986,0.0558014H-0.0373046v79.9815063h79.9815063
		V0.0558014"/>
	<path class="st1" d="M51.4525375,52.0111885c-1.3035393,0-2.327755-1.0242119-2.327755-2.327755
		c0-1.3035355,1.0242157-2.327755,2.327755-2.327755s2.3277359,1.0242195,2.3277359,2.327755
		C53.7802734,50.9869766,52.7560768,52.0111885,51.4525375,52.0111885 M27.0577164,53.5940552
		c-0.4655666,0-0.7448902-0.3724289-0.7448902-0.744873v-6.3314743c0-0.4655685,0.3724461-0.7448921,0.7448902-0.7448921
		c0.4655476,0,0.7448711,0.372448,0.7448711,0.7448921v6.3314743
		C27.8025875,53.3147278,27.4301434,53.5940552,27.0577164,53.5940552 M30.223444,53.5940552
		c-0.4655476,0-0.7448711-0.3724289-0.7448711-0.744873v-6.3314743c0-0.4655685,0.3724461-0.7448921,0.7448711-0.7448921
		c0.4655476,0,0.7448902,0.372448,0.7448902,0.7448921v6.3314743C30.9683342,53.3147278,30.59589,53.5940552,30.223444,53.5940552
		 M33.2960701,53.5940552c-0.4655495,0-0.744873-0.3724289-0.744873-0.744873v-6.3314743
		c0-0.4655685,0.372448-0.7448921,0.7448921-0.7448921c0.4655457,0,0.744873,0.372448,0.744873,0.7448921v6.3314743
		C34.0409622,53.3147278,33.6685143,53.5940552,33.2960701,53.5940552 M36.4618149,53.5940552
		c-0.3724442,0-0.7448692-0.3724289-0.7448692-0.744873v-6.3314743c0-0.4655685,0.3724251-0.7448921,0.7448692-0.7448921
		c0.372448,0,0.7448921,0.2793236,0.7448921,0.7448921v6.3314743C37.206707,53.3147278,36.8342628,53.5940552,36.4618149,53.5940552
		 M58.156456,39.8137894H21.8435593c-0.8379917,0-1.5828838,0.7448692-1.5828838,1.5828629v16.5735855
		c0,0.8379745,0.7448921,1.5828629,1.5828838,1.5828629H58.156456c0.8379745,0,1.5828667-0.744873,1.5828667-1.5828629V41.3966522
		C59.7393227,40.5586586,58.9944305,39.8137894,58.156456,39.8137894 M32.1787529,20.5400047
		c-2.7001801,0-4.9348125,2.2346497-4.9348125,4.9348297c0,2.7933044,1.2104168,5.3072815,2.9795036,6.3314972l-6.8901424,1.8621864
		c-0.6517696,0.1862221-1.0241947,0.7448921-1.0241947,1.3966599c0,0.0931015,0,0.186203,0,0.2793236l0.4655476,2.327755
		c0.0930996,0.2793236,0.3724442,0.5586472,0.7448692,0.5586472h5.6797047c0-0.0931015-0.0931015-0.0931015,0.000021-0.0931015
		l-0.4655666-2.4208527c-0.0931015-0.2793465-0.0931015-0.4655685-0.0931015-0.6517906
		c0-1.3035393,0.8379917-2.4208565,2.0484104-2.8864021l4.4692841-1.2104378
		c-1.0242119-1.4897423-1.5828629-3.4450531-1.5828629-5.4934845c0-1.5828629,0.4655495-2.9795227,1.3966408-4.0968399
		C34.2271843,20.8193283,33.2029686,20.5400047,32.1787529,20.5400047 M40.0000076,20.4469032
		c-2.7001991,0-4.9348335,2.2346306-4.9348335,4.9348297c0,2.8864059,1.2104187,5.3072586,2.9795074,6.4245987l-6.8901234,1.8621864
		c-0.6517696,0.1862221-1.0242157,0.7448921-1.0242157,1.3966599c0,0.0931015,0,0.186203,0,0.2793236l0.5586491,2.327755
		c0.0931206,0.2793236,0.3724442,0.5586472,0.7448902,0.5586472h8.5661259h8.5661087
		c0.3724442,0,0.6517677-0.2793236,0.7448921-0.5586472l0.5586472-2.4208755c0-0.0931015,0-0.186203,0-0.2793236
		c0-0.5586472-0.372448-1.1173172-1.0241966-1.3966408l-6.8901405-1.8622093
		c1.7690849-1.0242157,2.9795036-3.5381699,2.9795036-6.3314743C44.9348221,22.6815338,42.7001877,20.4469032,40.0000076,20.4469032
		 M47.9143448,20.4469032c-1.0242157,0-1.955307,0.2793236-2.7933006,0.8379898
		c0.8379936,1.1173172,1.3966599,2.6070786,1.3966599,4.0968399c0,2.1415329-0.5586662,4.0037193-1.5828819,5.4934845
		l4.5624084,1.1173134c1.2104187,0.4655685,2.0484085,1.5828857,2.0484085,2.886425
		c0,0.2793236-0.0931015,0.4655457-0.0931015,0.6517677L50.9869728,37.95158c0,0.0931015-0.0931015,0.0931015-0.0931015,0.1862221
		h5.6797028c0.3724442,0,0.6517715-0.1862221,0.7448921-0.5586662l0.4655457-2.327755c0-0.0931015,0-0.186203,0-0.2793236
		c0-0.5586472-0.4655457-1.1173172-1.0242157-1.3966408l-6.8901405-1.8622093
		c1.7690849-1.0242157,2.9795227-3.5381699,2.9795227-6.3314743C52.8491783,22.6815338,50.6145477,20.4469032,47.9143448,20.4469032
		"/>
</g>
<g>
</g>
</svg>
