<?xml version="1.0" encoding="UTF-8" standalone="no"?>
<!DOCTYPE svg PUBLIC "-//W3C//DTD SVG 1.1//EN" "http://www.w3.org/Graphics/SVG/1.1/DTD/svg11.dtd">
<svg width="100%" height="100%" viewBox="0 0 500 500" version="1.1" xmlns="http://www.w3.org/2000/svg" xmlns:xlink="http://www.w3.org/1999/xlink" xml:space="preserve" xmlns:serif="http://www.serif.com/" style="fill-rule:evenodd;clip-rule:evenodd;stroke-linejoin:round;stroke-miterlimit:2;">
    <g>
        <g transform="matrix(2.60891,0,0,3.36969,-219.987,-427.51)">
            <rect x="84.322" y="126.869" width="191.651" height="148.382" style="fill:rgb(255,136,0);"/>
        </g>
        <g transform="matrix(5.9839,0,0,5.9839,123.785,124.59)">
            <path d="M41.982,0.901L41.982,8.051L34.535,8.051L34.535,0.901L41.982,0.901ZM29.142,2.491L29.142,13.229L40.326,13.229L40.326,29.641C40.326,30.837 39.782,31.969 38.841,32.745L30.732,39.45C29.407,40.531 28.003,41.015 26.201,41.015L0.203,41.015L0.203,16.054C0.203,14.323 0.707,12.975 1.833,11.69L8.816,3.916C9.624,3.013 10.804,2.491 12.049,2.491L29.142,2.491ZM36.072,28.585L36.085,28.598L36.085,17.326L29.142,17.326L29.142,29.819L11.877,29.819L11.877,13.242L24.889,13.242L24.889,6.575L13.149,6.575C12.473,6.575 11.824,6.855 11.373,7.351L5.318,14.056C4.748,14.692 4.43,15.494 4.43,16.333L4.43,36.956L25.909,36.956C26.784,36.956 27.618,36.651 28.281,36.104L35.264,30.29C35.781,29.87 36.072,29.247 36.072,28.585ZM24.889,17.313L16.117,17.313L16.117,25.735L24.889,25.735L24.889,17.313Z" style="fill:white;"/>
        </g>
    </g>
</svg>
