<?xml version="1.0" encoding="utf-8"?>
<!-- Generator: Adobe Illustrator 22.0.1, SVG Export Plug-In . SVG Version: 6.00 Build 0)  -->
<!DOCTYPE svg PUBLIC "-//W3C//DTD SVG 1.1 Basic//EN" "http://www.w3.org/Graphics/SVG/1.1/DTD/svg11-basic.dtd">
<svg version="1.1" baseProfile="basic" id="layer"
	 xmlns="http://www.w3.org/2000/svg" xmlns:xlink="http://www.w3.org/1999/xlink" x="0px" y="0px" viewBox="0 0 80 80"
	 xml:space="preserve">
<style type="text/css">
	.st0{fill:#E9611E;}
	.st1{fill:#FEF7F4;}
</style>
<g>
	<path class="st0" d="M49.4972076,35.9031487c-2.2346306,0-4.096817,1.8622093-4.096817,4.0968437
		c0,2.2346535,1.8621864,4.0968399,4.096817,4.0968399c2.2346535,0,4.0037422-1.8621864,4.0968437-4.0968399
		C53.5940514,37.6722565,51.7318611,35.9031487,49.4972076,35.9031487 M30.5027771,44.0735626
		c-1.0474892,0-2.0949802-0.3957176-2.8864117-1.187149c-1.5828629-1.5828819-1.5828629-4.1899605,0-5.7728233
		c0.7914314-0.7914352,1.8156414-1.187149,2.8514919-1.187149s2.0833397,0.3957138,2.9213333,1.187149
		c1.5828629,1.5828629,1.5828629,4.1899414,0,5.7728233C32.5977592,43.677845,31.5502682,44.0735626,30.5027771,44.0735626
		 M30.59589,29.2923508c-6.0521507,0-10.8938618,4.9348335-10.8938618,10.8938637
		c0,1.2104378,0.186203,2.4208565,0.5586472,3.5381927c0.2483063,0.4965935,0.7034817,0.9104004,1.2276783,0.9104004
		c0.2620754,0,0.5414391-0.1034698,0.8207531-0.3517532c0.3724251-0.3724251,0.2793236-0.2793236,0.4655476-0.4655457
		c0.3961658-0.3961678,1.0293865-0.7133255,1.7455597-0.7133255c0.6303711,0,1.3250122,0.2457161,1.9788342,0.8995476
		c1.3966408,1.3966408,0.9310951,2.9795227,0.186224,3.7243958c-0.2793446,0.2793236-0.0931225,0.0931206-0.4655476,0.4655457
		c-0.7448921,0.8379936,0,1.769104,0.8379917,2.1415329h0.0931015c1.1173172,0.3724442,2.2346344,0.55867,3.3519707,0.55867
		c2.7932816,0,5.3072586-1.1173172,7.2625656-2.7933044c0.6517715-0.6517677,0.372448-1.4897614,0.0931244-2.0484314
		c-0.9311142-1.8621864-1.4897652-3.9106178-1.4897652-6.0521469c0-2.1415138,0.558651-4.1899414,1.4897652-6.0521507
		c0.2793236-0.5586472,0.5586472-1.3966408,0-1.8621864C35.9031677,30.3165665,33.3891907,29.2923508,30.59589,29.2923508
		 M40.0000076,29.1061287c1.2104187,0,2.9795036-0.6517677,4.3761673-1.2104378
		c1.5828629-0.6517677,3.3519478-1.0241928,5.1210327-1.0241928c7.2625885,0,13.1285172,5.8659248,13.1285172,13.1284943
		c0,7.2625847-5.8659286,13.1285133-13.0353928,13.1285133c-1.7690887,0-3.4450722-0.372448-5.027935-1.0241966
		c-0.0931206,0-0.0931206,0-0.0931206,0c-1.3966408-0.6517868-3.1657295-1.210434-4.3761673-1.210434
		s-2.9795227,0.6517677-4.3761635,1.210434c-0.0931206,0-0.0931206,0-0.0931206,0
		c-1.5828629,0.6517715-3.3519516,1.0241966-5.1210365,1.0241966c-7.2625885,0-13.1285152-5.8659286-13.1285152-13.1285133
		c0-7.2625694,5.8659267-13.1284943,13.1285152-13.1284943c1.8621864,0,3.5381737,0.3724251,5.1210365,1.0241928
		C37.0204849,28.5474625,38.7895699,29.1061287,40.0000076,29.1061287 M79.9441986,0.0558014H-0.0373046v79.9815063h79.9815063
		V0.0558014"/>
	<path class="st1" d="M30.4678574,35.9264412c-1.0358505,0-2.0600605,0.3957138-2.8514919,1.187149
		c-1.5828629,1.5828629-1.5828629,4.1899414,0,5.7728233c0.7914314,0.7914314,1.8389225,1.187149,2.8864117,1.187149
		c1.0474911,0,2.0949821-0.3957176,2.8864136-1.187149c1.5828629-1.5828819,1.5828629-4.1899605,0-5.7728233
		C32.5511971,36.322155,31.5037079,35.9264412,30.4678574,35.9264412"/>
	<path class="st1" d="M49.4972076,44.0968323c-2.2346306,0-4.096817-1.8621864-4.096817-4.0968399
		c0-2.2346344,1.8621864-4.0968437,4.096817-4.0968437c2.2346535,0,4.0968437,1.7691078,4.0968437,4.0968437
		C53.5009499,42.2346458,51.7318611,44.0968323,49.4972076,44.0968323 M21.4883537,44.6348076
		c-0.5241966,0-0.979372-0.4138069-1.2276783-0.9104004c-0.3724442-1.1173363-0.5586472-2.327755-0.5586472-3.5381927
		c0-5.9590302,4.841711-10.8938637,10.8938618-10.8938637c2.7933006,0,5.3072777,1.0242157,7.2625885,2.7933044
		c0.5586472,0.4655457,0.2793236,1.3035393,0,1.8621864c-0.9311142,1.8622093-1.4897652,3.9106369-1.4897652,6.0521507
		c0,2.1415291,0.558651,4.1899605,1.4897652,6.0521469c0.2793236,0.55867,0.5586472,1.3966637-0.0931244,2.0484314
		c-1.955307,1.6759872-4.4692841,2.7933044-7.2625656,2.7933044c-1.1173363,0-2.2346535-0.1862259-3.3519707-0.55867h-0.0931015
		c-0.8379917-0.3724289-1.5828838-1.3035393-0.8379917-2.1415329c0.3724251-0.3724251,0.186203-0.1862221,0.4655476-0.4655457
		c0.7448711-0.744873,1.2104168-2.327755-0.186224-3.7243958c-0.6538219-0.6538315-1.3484631-0.8995476-1.9788342-0.8995476
		c-0.7161732,0-1.3493938,0.3171577-1.7455597,0.7133255c-0.186224,0.1862221-0.0931225,0.0931206-0.4655476,0.4655457
		C22.0297928,44.5313377,21.7504292,44.6348076,21.4883537,44.6348076 M49.4972076,26.8714981
		c-1.7690849,0-3.5381699,0.3724251-5.1210327,1.0241928c-1.3966637,0.55867-3.1657486,1.2104378-4.3761673,1.2104378
		c-1.2104378,0-2.9795227-0.5586662-4.3761826-1.2104378c-1.5828629-0.6517677-3.2588501-1.0241928-5.1210365-1.0241928
		c-7.2625885,0-13.1285152,5.8659248-13.1285152,13.1284943c0,7.2625847,5.8659267,13.1285133,13.1285152,13.1285133
		c1.7690849,0,3.5381737-0.3724251,5.1210365-1.0241966c0,0,0,0,0.0931206,0
		c1.3966408-0.5586662,3.1657257-1.210434,4.3761635-1.210434s2.9795265,0.5586472,4.3761673,1.210434c0,0,0,0,0.0931206,0
		c1.5828629,0.6517487,3.2588463,1.0241966,5.027935,1.0241966c7.1694641,0,13.0353928-5.8659286,13.0353928-13.1285133
		C62.6257248,32.7374229,56.7597961,26.8714981,49.4972076,26.8714981"/>
</g>
<g>
</g>
</svg>
