<?xml version="1.0" encoding="utf-8"?>
<!-- Generator: Adobe Illustrator 22.0.1, SVG Export Plug-In . SVG Version: 6.00 Build 0)  -->
<!DOCTYPE svg PUBLIC "-//W3C//DTD SVG 1.1 Basic//EN" "http://www.w3.org/Graphics/SVG/1.1/DTD/svg11-basic.dtd">
<svg version="1.1" baseProfile="basic" id="layer" xmlns="http://www.w3.org/2000/svg" xmlns:xlink="http://www.w3.org/1999/xlink"
	 x="0px" y="0px" viewBox="0 0 80 80" xml:space="preserve">
<style type="text/css">
	.st0{fill:#03426D;}
	.st1{fill:#F2F5F8;}
	.st2{fill:#DD0000;}
	.st3{fill:#FFFFFF;}
</style>
<g>
	<path class="st0" d="M50.7,20.4c-3,0-6.3,0-9.3,0c-0.1,0.7-0.2,1.5-0.3,2.3c-0.3,1.6-0.5,3.2-0.7,4.7c-1.6,0-3.1,0-4.7,0
		c-0.2,0-0.5,0-0.7,0c-0.1,0-0.2,0-0.3,0c-2,0-4,0-5.9,0c0,0.5-0.7,5.3-1.6,11.6c-0.1,0.7-0.2,1.5-0.3,2.3c1.6,0,3.1,0,4.7,0
		c1.8,0,6.3,0,9.3,0L40.2,46h-5.5h-3.8c-0.9,6-1.5,10.7-1.6,11.6c3,0,6.3,0,9.3,0c0.1-0.7,0.2-1.5,0.3-2.3c0.3-1.6,0.5-3.2,0.7-4.7
		c1.6,0,3.1,0,4.7,0c0.2,0,0.5,0,0.7,0c0.1,0,0.2,0,0.3,0c2,0,4,0,5.9,0c0-0.5,0.7-5.3,1.6-11.6c0.1-0.8,0.2-1.6,0.3-2.3
		c-1.6,0-3.1,0-4.7,0c-1.8,0-6.3,0-9.3,0l0.7-4.7h5.5h3.8C50,26,50.6,21.3,50.7,20.4 M21.6,46l0.6-4.7l0.3-2.3l2.3-16.3h10.6h0.3
		h0.7l1-7h4.7h14L53.8,32h4.6l-0.6,4.7L57.5,39l-2.2,16.3H44.7h-0.3h-0.7l-1,7H38H24L26.3,46H21.6 M80,0H0v80h80V0"/>
	<path class="st1" d="M26.9,41.3c0.1-0.8,0.2-1.6,0.3-2.3c0.9-6.3,1.6-11.1,1.6-11.6c1.9,0,3.9,0,5.9,0c0.1,0,0.2,0,0.3,0
		c0.2,0,0.5,0,0.7,0c1.6,0,3.1,0,4.7,0c0.2-1.5,0.4-3.1,0.7-4.7c0.1-0.8,0.2-1.6,0.3-2.3c3,0,6.3,0,9.3,0C50.6,21.3,50,26,49.1,32
		h-3.8h-5.5l-0.7,4.7c3,0,7.5,0,9.3,0c1.6,0,3.1,0,4.7,0c-0.1,0.7-0.2,1.5-0.3,2.3c-0.9,6.3-1.6,11.1-1.6,11.6c-1.9,0-3.9,0-5.9,0
		c-0.1,0-0.2,0-0.3,0c-0.2,0-0.5,0-0.7,0c-1.6,0-3.1,0-4.7,0c-0.2,1.5-0.4,3.1-0.7,4.7c-0.1,0.8-0.2,1.6-0.3,2.3c-3,0-6.3,0-9.3,0
		C29.4,56.7,30,52,30.9,46h3.8h5.5l0.7-4.7c-3,0-7.5,0-9.3,0C30,41.3,28.5,41.3,26.9,41.3 M56.1,15.7h-14h-4.7l-1,7h-0.7h-0.3H24.8
		L22.5,39l-0.3,2.3L21.6,46h4.7L24,62.3h14h4.7l1-7h0.7h0.3h10.6L57.5,39l0.3-2.3l0.6-4.7h-4.6L56.1,15.7"/>
	<polyline class="st2" points="80,45.4 80,80 45.4,80 	"/>
	<path class="st3" d="M75.9,71.4c0-0.2-0.1-0.4-0.4-0.6l-2.1-1.3c0,0.2,0.1,0.4,0.1,0.5l1.7,1.1c0.1,0.1,0.2,0.2,0.2,0.3
		s-0.1,0.2-0.2,0.3l-6.3,3.9c-0.3,0.2-0.7,0.2-1,0l-6.3-3.9c-0.1-0.1-0.2-0.2-0.2-0.3s0.1-0.2,0.2-0.3l1.8-1.1c0-0.2,0-0.3,0-0.5
		l-2.1,1.3c-0.2,0.1-0.4,0.4-0.4,0.6v0.4c0,0.2,0.1,0.4,0.4,0.6l6.3,3.9c0.2,0.1,0.5,0.2,0.8,0.2s0.6-0.1,0.8-0.2l6.3-3.9
		c0.2-0.1,0.4-0.4,0.4-0.6V71.4C75.9,71.5,75.9,71.4,75.9,71.4z"/>
	<path class="st3" d="M71.9,67.7c-1.3-1.3,0.2-2.4,0.2-2.4S69.8,65.7,70,67c-0.1,0-1.3-0.1-0.3-1.2c2.6-3-1.7-4.1-1.7-4.1
		s1.3,1.5,0.2,2.1c-4.5,2.6-1.8,5-1.8,5s-2.2,0.4-1.2-1.9c0,0-1.5,0.5-1.5,2.5c-0.1,2,1.1,3.1,2,3.6c0.5,0.3,1.1,0.4,1.7,0.5
		c-0.5-0.3-1.1-0.9-1.1-2c0.1-1.1,1-1.6,1-1.6s-0.5,0.8,0,1.2s1.4-0.4,0.6-0.9c-0.9-0.6-0.9-1.6,0.5-2.1c0,0-0.6,1.4,0.6,1.8
		c1.3,0.5,2.1,2.8,0.1,3.6C73.7,73.5,73.9,69.6,71.9,67.7z"/>
</g>
<g>
</g>
</svg>
