<?xml version="1.0" encoding="utf-8"?>
<!-- Generator: Adobe Illustrator 21.1.0, SVG Export Plug-In . SVG Version: 6.00 Build 0)  -->
<svg version="1.1" xmlns="http://www.w3.org/2000/svg" xmlns:xlink="http://www.w3.org/1999/xlink" x="0px" y="0px"
	 viewBox="0 0 80 80" style="enable-background:new 0 0 80 80;" xml:space="preserve">
<style type="text/css">
	.st0{fill:#87B537;}
	.st1{opacity:0.95;}
	.st2{fill:#FFFFFF;}
	.st3{fill:#F2F2F2;}
	.st4{opacity:0.95;fill:#48ABD6;}
	.st5{fill:#6B6B70;}
	.st6{fill:#EFEFEF;}
	.st7{fill:#808088;}
	.st8{fill:#0C0C0C;}
	.st9{fill:#7C878E;}
	.st10{fill:#FF5577;}
	.st11{opacity:0.4;enable-background:new    ;}
	.st12{fill:none;stroke:#808088;stroke-miterlimit:10;}
	.st13{fill:#03426D;}
	.st14{fill:#013E6E;}
	.st15{fill:url(#SVGID_1_);}
	.st16{fill:url(#SVGID_2_);}
	.st17{fill:url(#SVGID_3_);}
	.st18{fill:url(#SVGID_4_);}
	.st19{fill:url(#SVGID_5_);}
	.st20{fill:url(#SVGID_6_);}
	.st21{fill:url(#SVGID_7_);}
	.st22{fill:url(#SVGID_8_);}
	.st23{fill:url(#SVGID_9_);}
	.st24{fill:url(#SVGID_10_);}
	.st25{fill:url(#SVGID_11_);}
	.st26{fill:url(#SVGID_12_);}
	.st27{fill:url(#SVGID_13_);}
	.st28{fill:url(#SVGID_14_);}
	.st29{fill:url(#SVGID_15_);}
	.st30{fill:url(#SVGID_16_);}
	.st31{fill:url(#SVGID_17_);}
	.st32{fill:url(#SVGID_18_);}
	.st33{fill:url(#SVGID_19_);}
	.st34{fill:url(#SVGID_20_);}
	.st35{fill:url(#SVGID_21_);}
	.st36{fill:url(#SVGID_22_);}
	.st37{fill:url(#SVGID_23_);}
	.st38{fill:url(#SVGID_24_);}
	.st39{fill:url(#SVGID_25_);}
	.st40{fill:url(#SVGID_26_);}
	.st41{fill:url(#SVGID_27_);}
	.st42{fill:url(#SVGID_28_);}
	.st43{fill:url(#SVGID_29_);}
	.st44{fill:url(#SVGID_30_);}
	.st45{fill:url(#SVGID_31_);}
	.st46{fill:url(#SVGID_32_);}
	.st47{fill:url(#SVGID_33_);}
	.st48{fill:url(#SVGID_34_);}
	.st49{fill:url(#SVGID_35_);}
	.st50{fill:url(#SVGID_36_);}
	.st51{fill:url(#SVGID_37_);}
	.st52{fill:url(#SVGID_38_);}
	.st53{fill:url(#SVGID_39_);}
	.st54{fill:url(#SVGID_40_);}
	.st55{fill:url(#SVGID_41_);}
	.st56{fill:url(#SVGID_42_);}
	.st57{fill:url(#SVGID_43_);}
	.st58{fill:url(#SVGID_44_);}
	.st59{fill:url(#SVGID_45_);}
	.st60{fill:url(#SVGID_46_);}
	.st61{fill:url(#SVGID_47_);}
	.st62{fill:url(#SVGID_48_);}
	.st63{fill:url(#SVGID_49_);}
	.st64{fill:url(#SVGID_50_);}
	.st65{fill:url(#SVGID_51_);}
	.st66{fill:url(#SVGID_52_);}
	.st67{fill:url(#SVGID_53_);}
	.st68{fill:url(#SVGID_54_);}
	.st69{fill:url(#SVGID_55_);}
	.st70{fill:url(#SVGID_56_);}
	.st71{fill:url(#SVGID_57_);}
	.st72{fill:url(#SVGID_58_);}
	.st73{fill:url(#SVGID_59_);}
	.st74{fill:url(#SVGID_60_);}
	.st75{fill:url(#SVGID_61_);}
	.st76{fill:url(#SVGID_62_);}
	.st77{fill:url(#SVGID_63_);}
	.st78{fill:url(#SVGID_64_);}
	.st79{fill:url(#SVGID_65_);}
	.st80{fill:url(#SVGID_66_);}
	.st81{fill:url(#SVGID_67_);}
	.st82{fill:url(#SVGID_68_);}
	.st83{fill:url(#SVGID_69_);}
	.st84{fill:url(#SVGID_70_);}
	.st85{fill:url(#SVGID_71_);}
	.st86{fill:url(#SVGID_72_);}
	.st87{fill:url(#SVGID_73_);}
	.st88{fill:url(#SVGID_74_);}
	.st89{fill:url(#SVGID_75_);}
	.st90{fill:url(#SVGID_76_);}
	.st91{fill:url(#SVGID_77_);}
	.st92{fill:url(#SVGID_78_);}
	.st93{fill:url(#SVGID_79_);}
	.st94{fill:url(#SVGID_80_);}
	.st95{fill:url(#SVGID_81_);}
	.st96{fill:url(#SVGID_82_);}
	.st97{fill:url(#SVGID_83_);}
	.st98{fill:url(#SVGID_84_);}
	.st99{fill:url(#SVGID_85_);}
	.st100{fill:url(#SVGID_86_);}
	.st101{fill:url(#SVGID_87_);}
	.st102{fill:url(#SVGID_88_);}
	.st103{fill:url(#SVGID_89_);}
	.st104{fill:url(#SVGID_90_);}
	.st105{fill:url(#SVGID_91_);}
	.st106{fill:url(#SVGID_92_);}
	.st107{fill:url(#SVGID_93_);}
	.st108{fill:url(#SVGID_94_);}
	.st109{fill:url(#SVGID_95_);}
	.st110{fill:url(#SVGID_96_);}
	.st111{fill:url(#SVGID_97_);}
	.st112{fill:url(#SVGID_98_);}
	.st113{fill:#231815;}
	.st114{fill:#040000;}
	.st115{opacity:0.4;}
	.st116{opacity:0.4;fill:#808088;enable-background:new    ;}
	.st117{fill:#939393;}
	.st118{fill:none;stroke:#FFFFFF;stroke-width:2.5;stroke-linecap:round;stroke-linejoin:round;stroke-miterlimit:10;}
	.st119{fill:#7B90D2;}
	.st120{enable-background:new    ;}
	.st121{fill:none;stroke:#FFFDFD;stroke-width:30;stroke-linecap:round;stroke-linejoin:round;}
	.st122{fill:#EDB23A;}
	.st123{fill:#568CC5;}
	.st124{fill:#0E9794;}
	.st125{fill:#565656;}
	.st126{fill:#DCE7EA;}
	.st127{fill:#1BB2A7;}
	.st128{fill:#E9611E;}
	.st129{fill:#DD5252;}
	.st130{fill:#F4B62A;}
	.st131{fill:#155D84;}
	.st132{fill:#ED7540;}
	.st133{fill:#656464;}
	.st134{fill:#4C4948;}
	.st135{fill:url(#SVGID_99_);}
	.st136{fill:url(#SVGID_100_);}
	.st137{fill:url(#SVGID_101_);}
	.st138{fill:url(#SVGID_102_);}
	.st139{fill:#FFFDFD;}
	.st140{fill:url(#SVGID_103_);}
	.st141{fill:none;}
	.st142{fill:url(#SVGID_104_);}
	.st143{fill:url(#SVGID_105_);}
	.st144{fill:url(#SVGID_106_);}
	.st145{fill:url(#SVGID_107_);}
	.st146{fill:url(#SVGID_108_);}
	.st147{fill:url(#SVGID_109_);}
	.st148{fill:url(#SVGID_110_);}
	.st149{fill:url(#SVGID_111_);}
	.st150{fill:url(#SVGID_112_);}
	.st151{fill:url(#SVGID_113_);}
	.st152{fill:url(#SVGID_114_);}
	.st153{fill:url(#SVGID_115_);}
	.st154{fill:url(#SVGID_116_);}
	.st155{fill:url(#SVGID_117_);}
	.st156{fill:url(#SVGID_118_);}
	.st157{fill:url(#SVGID_119_);}
	.st158{fill:url(#SVGID_120_);}
	.st159{fill:url(#SVGID_121_);}
	.st160{fill:url(#SVGID_122_);}
	.st161{fill:url(#SVGID_123_);}
	.st162{fill:url(#SVGID_124_);}
	.st163{fill:url(#SVGID_125_);}
	.st164{fill:url(#SVGID_126_);}
	.st165{fill:url(#SVGID_127_);}
	.st166{fill:url(#SVGID_128_);}
	.st167{fill:url(#SVGID_129_);}
	.st168{fill:url(#SVGID_130_);}
	.st169{fill:url(#SVGID_131_);}
	.st170{fill:url(#SVGID_132_);}
	.st171{fill:url(#SVGID_133_);}
	.st172{fill:url(#SVGID_134_);}
	.st173{fill:url(#SVGID_135_);}
	.st174{fill:url(#SVGID_136_);}
	.st175{fill:url(#SVGID_137_);}
	.st176{fill:url(#SVGID_138_);}
	.st177{fill:url(#SVGID_139_);}
	.st178{opacity:0.9;}
	.st179{opacity:0.9;enable-background:new    ;}
	.st180{fill:#CCCCCF;}
	.st181{fill:#FDFDFD;}
	.st182{fill:#808088;enable-background:new    ;}
	.st183{opacity:0.4;fill:#808088;}
	.st184{fill:#282828;}
	.st185{fill:#F4AE00;}
	.st186{opacity:0.95;fill:#FFFFFF;}
	.st187{fill:#48ABD6;}
	.st188{fill:#EDEDED;}
	.st189{fill:#DD0000;}
	.st190{fill:#186885;}
	.st191{fill:#FFFFFF;stroke:#186885;stroke-width:2;stroke-miterlimit:10;}
	.st192{fill:#484848;}
	.st193{opacity:0.7;}
	.st194{opacity:0.5;}
	.st195{fill:#DD2204;}
	.st196{fill:none;stroke:#CCCCCF;stroke-miterlimit:10;}
	.st197{fill:none;stroke:#03E2C1;stroke-width:2;stroke-miterlimit:10;}
	.st198{fill:#03E2C1;}
	.st199{fill:#0A5B89;}
	.st200{display:none;}
	.st201{display:inline;fill:#1BB2A7;}
	.st202{display:inline;fill:#52D1C5;}
	.st203{fill:#3ADDCD;}
	.st204{fill:none;stroke:#FFFFFF;stroke-miterlimit:10;}
	.st205{fill:none;stroke:#FFFFFF;stroke-width:2;stroke-miterlimit:10;}
	.st206{fill:none;stroke:#FFFFFF;stroke-width:0.5;stroke-miterlimit:10;}
	.st207{display:inline;fill:#FFFFFF;}
	.st208{display:inline;fill:none;stroke:#FFFFFF;stroke-width:0.5;stroke-miterlimit:10;}
	.st209{fill:#FFFFFF;stroke:#FFFFFF;stroke-width:0.5;stroke-miterlimit:10;}
	.st210{fill:#FFFFFF;enable-background:new    ;}
	.st211{fill:none;stroke:#F92DA7;stroke-miterlimit:10;}
	.st212{display:inline;fill:#FF5577;}
	.st213{display:inline;opacity:0.4;}
	.st214{display:inline;fill:#808088;}
	.st215{fill:#F92DA7;}
	.st216{fill:#2FF7B9;}
	.st217{fill:#DCDCDC;}
	.st218{fill:#00ABF7;}
</style>
<symbol  id="クラウド載ってる_2" viewBox="-17.3 -17.3 34.6 34.6">
	<polyline class="st0" points="-17.3,-17.3 -17.3,17.3 17.3,17.3 	"/>
	<g class="st1">
		<g>
			<path class="st2" d="M-2.7,13.5c-1.5,0.9-3.5,0.4-4.5-1c-1.6,0.2-3.1-0.6-3.9-2C-11.8,9-11.6,7.3-10.6,6
				c-0.9-0.2-1.7-0.8-2.1-1.6c-0.9-1.7-0.3-3.8,1.3-4.7c1.5-0.9,3.5-0.4,4.5,1c1.6-0.2,3.1,0.6,3.9,2c0.8,1.5,0.6,3.2-0.4,4.5
				C-2.6,7.4-1.8,8-1.3,8.8C-0.4,10.4-1,12.5-2.7,13.5z M-2.3,9.3c-0.4-0.7-1.2-1.2-2-1.2c-0.3,0-0.5-0.2-0.6-0.4
				C-4.9,7.7-5,7.6-5,7.5C-5.1,7.3-5,7-4.8,6.8C-3.7,6-3.4,4.4-4.1,3.2c-0.6-1.1-1.8-1.6-3-1.4c-0.3,0.1-0.5-0.1-0.6-0.3
				c0,0,0,0,0,0c-0.6-1.1-2-1.5-3.1-0.9c-1.1,0.6-1.5,2-0.9,3.1c0.4,0.7,1.2,1.2,2,1.2c0.3,0,0.5,0.2,0.6,0.4c0,0.1,0.1,0.2,0.1,0.3
				c0.1,0.2,0,0.5-0.2,0.7c-1.1,0.8-1.4,2.4-0.7,3.6c0.6,1.1,1.8,1.6,3,1.4c0.2-0.1,0.5,0.1,0.6,0.3c0,0,0,0,0,0
				c0.6,1.1,2,1.5,3.1,0.9C-2.1,11.8-1.7,10.4-2.3,9.3z"/>
			<path class="st2" d="M-7,12.4L-7,12.3l-0.1,0c-1.5,0.2-2.9-0.6-3.7-1.9c-0.8-1.3-0.6-3,0.4-4.2l0.2-0.3l-0.3-0.1
				c-0.8-0.2-1.6-0.8-2-1.5c-0.9-1.6-0.3-3.5,1.2-4.4c1.4-0.8,3.3-0.4,4.2,0.9L-7,0.9l0.1,0C-5.4,0.7-4,1.5-3.3,2.8
				c0.8,1.3,0.6,3-0.4,4.2l-0.2,0.3l0.3,0.1c0.8,0.2,1.6,0.8,2,1.5c0.9,1.6,0.3,3.5-1.2,4.4C-4.2,14.1-6,13.7-7,12.4z M-6.5,11.7
				L-6.5,11.7c0.7,1.2,2.2,1.7,3.4,1c1.2-0.7,1.6-2.2,1-3.4C-2.6,8.4-3.4,8-4.4,8c-0.2,0-0.3-0.1-0.3-0.3l-0.1-0.3
				c-0.1-0.2,0-0.3,0.1-0.4c1.2-0.9,1.5-2.6,0.8-3.9c-0.7-1.2-2-1.7-3.3-1.5c-0.2,0-0.3,0-0.4-0.2c0,0,0,0,0,0
				c-0.7-1.2-2.2-1.6-3.4-1c-0.6,0.3-1,0.9-1.2,1.5c-0.2,0.6-0.1,1.3,0.2,1.9c0.4,0.8,1.3,1.3,2.2,1.3c0.2,0,0.3,0.1,0.3,0.3
				l0.1,0.3c0.1,0.2,0,0.3-0.1,0.4c-1.2,0.9-1.5,2.6-0.8,3.9c0.7,1.2,2,1.7,3.3,1.5C-6.8,11.5-6.6,11.5-6.5,11.7z"/>
		</g>
	</g>
</symbol>
<symbol  id="サポート_1_" viewBox="-43 -43 85.9 85.9">
	<rect x="-43" y="-43" class="st3" width="85.9" height="85.9"/>
	<path id="XMLID_1545_" class="st4" d="M19.8-11.1L6.7-7.5C5.4-8.5,3.9-9.3,2.3-9.6c-0.3-0.9-1.1-1.5-2.1-1.5C-1-11.2-2-10.2-2-9
		s1,2.2,2.2,2.2c0.8,0,1.5-0.4,1.9-1.1c3.2,0.8,6,3.6,7.6,7.4c0.1,0,0.2,0,0.4,0c3,0,5.4,2.4,5.4,5.4c0,1.1-0.3,2.2-0.9,3
		c-0.4,7.5-6.7,13.5-14.3,13.5s-13.9-6-14.3-13.5C-14.7,7.1-15,6-15,4.9c0-3,2.4-5.4,5.4-5.4c0.1,0,0.2,0,0.4,0
		c1.2-2.8,2.9-5.1,5.1-6.4l-15.2-4.2c-1.3-0.4-2.2-1.6-2.2-3.1c0-0.2,0-0.4,0.1-0.7l1.1-5.1c0.2-0.8,0.9-1.3,1.7-1.3h0H0.2h18.9h0
		c0.8,0,1.5,0.6,1.7,1.3l1.1,5.1c0,0.2,0.1,0.4,0.1,0.7C22-12.7,21.1-11.5,19.8-11.1z M0.2,19.7c6.1,0,11.1-4.3,12.3-10
		c-0.6,0.3-1.3,0.5-2,0.6C9.2,14.8,5.1,18,0.2,18c-4.9,0-9-3.2-10.4-7.7c-0.7-0.1-1.4-0.3-2-0.6C-10.9,15.4-5.9,19.7,0.2,19.7z"/>
</symbol>
<g id="レイヤー_1">
	<g id="幅狭1">
	</g>
	<g id="専鯖">
	</g>
	<g id="レンサバ_1_">
	</g>
	<g id="ウェブアクセラレータ_1_">
	</g>
	<g id="sakura.io_1_">
	</g>
	<g id="クラウド_1_">
	</g>
	<g id="vps_1_">
	</g>
</g>
<g id="レイヤー_2">
	<g id="レイヤー_3">
	</g>
</g>
<g id="レイヤー_4">
	<g id="レイヤー_5">
		<g id="レンサバ">
		</g>
		<g id="サポート">
		</g>
		<g id="会員_2">
		</g>
		<g id="専鯖高火力">
		</g>
		<g id="ウェブアクセラレータ">
		</g>
		<g id="sakura.io">
		</g>
		<g id="クラウド">
		</g>
		<g id="オブジェクトストレージ_2">
		</g>
		<g id="vps">
		</g>
		<g id="コンテンツ配信">
		</g>
		<g id="高火力">
		</g>
	</g>
</g>
<g id="レイヤー_6">
</g>
<g id="レイヤー_7">
	
		<use xlink:href="#サポート_1_"  width="85.9" height="85.9" id="XMLID_861_" x="-43" y="-43" transform="matrix(0.9311 0 0 -0.9311 40 40)" style="overflow:visible;"/>
</g>
</svg>
