<?xml version="1.0" encoding="utf-8"?>
<!-- Generator: Adobe Illustrator 22.0.1, SVG Export Plug-In . SVG Version: 6.00 Build 0)  -->
<!DOCTYPE svg PUBLIC "-//W3C//DTD SVG 1.1 Basic//EN" "http://www.w3.org/Graphics/SVG/1.1/DTD/svg11-basic.dtd">
<svg version="1.1" baseProfile="basic" id="layer" xmlns="http://www.w3.org/2000/svg" xmlns:xlink="http://www.w3.org/1999/xlink"
	 x="0px" y="0px" viewBox="0 0 80 80" xml:space="preserve">
<style type="text/css">
	.st0{fill:#F2F2F2;}
	.st1{fill:#51AFD7;}
</style>
<g>
	<path class="st0" d="M40.1862106,21.657341c-5.6797028,0-10.3351917,4.0037193-11.5456295,9.310997
		c0.5586681-0.2793465,1.2104378-0.4655457,1.8622074-0.55867c1.3035393-4.1899414,5.1210365-7.1694641,9.6834221-7.1694641
		c4.5624084,0,8.3799057,2.9795227,9.5903435,7.1694641c0.6517677,0.0931015,1.3035393,0.2793236,1.8621864,0.55867
		C50.5214233,25.6610603,45.8659363,21.657341,40.1862106,21.657341 M31.0614357,40.4655571
		c-2.7933006,0-5.0279331-2.2346535-5.0279331-5.0279541c0-1.0241928,0.2793236-2.0484085,0.9310932-2.7933006
		c0.3724461-6.983242,6.2383728-12.5698471,13.3147354-12.5698471s12.9422951,5.5866051,13.3147202,12.5698471
		c0.5586662,0.7448921,0.8379898,1.7691078,0.8379898,2.7933006c0,2.7933006-2.2346306,5.0279541-5.0279312,5.0279541
		c-0.1862259,0-0.2793274,0-0.372448,0c-1.4897614,3.5381737-4.0968399,6.1452522-7.0763435,6.8901215
		c-0.372448-0.6517487-1.0242157-1.0241928-1.7691078-1.0241928c-1.1173172,0-2.0484085,0.9310913-2.0484085,2.0484123
		c0,1.0655518,0.8467865,1.9617386,1.8943634,1.9617386c0.0508842,0,0.1022873-0.002121,0.1540451-0.0064316
		c0.9311142,0,1.6759872-0.5586472,1.9553108-1.3966408c1.4897614-0.2793465,2.8864212-1.0242157,4.0968399-1.9553108
		l12.197422,3.3519516c1.2104149,0.3724442,2.0484085,1.4897614,2.0484085,2.8864212
		c0,0.2793274-0.0931015,0.4655457-0.0931015,0.6517715l-1.0242157,4.7486115
		c-0.1862221,0.6517677-0.8379898,1.2104187-1.5828629,1.2104187H40.1862106H22.6815319
		c-0.7448711,0-1.3966408-0.4655495-1.5828629-1.2104187l-1.0242157-4.7486115
		c-0.0931015-0.2793427-0.0931015-0.4655457-0.0931015-0.6517715c0-1.3966599,0.8379917-2.5139771,2.0484104-2.8864212
		l14.152729-3.9106178c-2.0484276-1.2104187-3.6312943-3.3519516-4.7486095-5.9590302
		C31.2476597,40.4655571,31.1545582,40.4655571,31.0614357,40.4655571 M79.9441986,0.0558014H-0.0373046v79.9815063h79.9815063
		V0.0558014"/>
	<path class="st1" d="M28.6405811,30.968338c1.2104378-5.3072777,5.8659267-9.310997,11.5456295-9.310997
		c5.6797256,0,10.3352127,4.0037193,11.4525299,9.310997c-0.5586472-0.2793465-1.2104187-0.4655685-1.8621864-0.55867
		c-1.2104378-4.1899414-5.027935-7.1694641-9.5903435-7.1694641c-4.5623856,0-8.3798828,2.9795227-9.6834221,7.1694641
		C29.8510189,30.5027924,29.1992493,30.6889915,28.6405811,30.968338 M40.2793312,20.0744553
		c-7.0763626,0-12.9422894,5.5866051-13.3147354,12.5698471c-0.6517696,0.7448921-0.9310932,1.7691078-0.9310932,2.7933006
		c0,2.7933006,2.2346325,5.0279541,5.0279331,5.0279541c0.0931225,0,0.186224,0,0.3724461,0
		c1.1173153,2.6070786,2.700182,4.7486115,4.7486095,5.9590302l-14.152729,3.9106178
		c-1.2104187,0.3724442-2.0484104,1.4897614-2.0484104,2.8864212c0,0.1862259,0,0.3724289,0.0931015,0.6517715l1.0242157,4.7486115
		c0.1862221,0.7448692,0.8379917,1.2104187,1.5828629,1.2104187h17.5046787h17.5978012
		c0.744873,0,1.3966408-0.558651,1.5828629-1.2104187l1.0242157-4.7486115c0-0.1862259,0.0931015-0.3724442,0.0931015-0.6517715
		c0-1.3966599-0.8379936-2.5139771-2.0484085-2.8864212l-12.197422-3.3519516
		c-1.2104187,0.9310951-2.6070786,1.6759644-4.0968399,1.9553108c-0.2793236,0.8379936-1.0241966,1.3966408-1.9553108,1.3966408
		c-0.0517578,0.0043106-0.1031609,0.0064316-0.1540451,0.0064316c-1.0475769,0-1.8943634-0.8961868-1.8943634-1.9617386
		c0-1.117321,0.9310913-2.0484123,2.0484085-2.0484123c0.7448921,0,1.3966599,0.3724442,1.7691078,1.0241928
		c2.9795036-0.7448692,5.5865822-3.3519478,7.0763435-6.8901215c0.0931206,0,0.1862221,0,0.372448,0
		c2.7933006,0,5.0279312-2.2346535,5.0279312-5.0279541c0-1.0241928-0.2793236-2.0484085-0.8379898-2.7933006
		C53.2216263,25.6610603,47.3556976,20.0744553,40.2793312,20.0744553"/>
</g>
</svg>
