<?xml version="1.0" encoding="utf-8"?>
<!-- Generator: Adobe Illustrator 22.0.1, SVG Export Plug-In . SVG Version: 6.00 Build 0)  -->
<!DOCTYPE svg PUBLIC "-//W3C//DTD SVG 1.1 Basic//EN" "http://www.w3.org/Graphics/SVG/1.1/DTD/svg11-basic.dtd">
<svg version="1.1" baseProfile="basic" id="layer" xmlns="http://www.w3.org/2000/svg" xmlns:xlink="http://www.w3.org/1999/xlink"
	 x="0px" y="0px" viewBox="0 0 80 80" xml:space="preserve">
<style type="text/css">
	.st0{fill:#0E9794;}
	.st1{opacity:0.95;fill:#FFFFFF;}
</style>
<symbol  id="vps_2_" viewBox="-42.9500008 -42.9500008 85.9000015 85.9000015">
	<rect x="-42.9500008" y="-42.9500008" class="st0" width="85.9000015" height="85.9000015"/>
	<path class="st1" d="M0.4499992,13.9499989L-2.4500008,3.1499991H8.3499994L3.4499993-14.9500008h-13.5L-7.150001-4.1500006
		h-10.7999992l4.8999996,18.1000004h13.5 M5.5499992,17.8499985h-21.6000004l-6.8999996-25.8999996h10.8000002
		l-2.9000006-10.8000011h21.5l6.9999995,25.9000015H2.6499991L5.5499992,17.8499985L5.5499992,17.8499985z M7.5499992,10.9499989
		h6.8999996l1.7999992,6.8999996H9.3499994L7.5499992,10.9499989z M18.3499985,10.9499989h6.8999996l1.7999992,6.8999996h-6.8999996
		L18.3499985,10.9499989z M15.4499989,0.1499992h6.8999996l1.8000011,6.9000001H17.25L15.4499989,0.1499992z"/>
</symbol>
<use xlink:href="#vps_2_"  width="85.9000015" height="85.9000015" id="vps" x="-42.9500008" y="-42.9500008" transform="matrix(0.9311 0 0 -0.9311 39.9534454 40.0465546)" style="overflow:visible;"/>
</svg>
