<?xml version="1.0" encoding="utf-8"?>
<!-- Generator: Adobe Illustrator 22.0.1, SVG Export Plug-In . SVG Version: 6.00 Build 0)  -->
<!DOCTYPE svg PUBLIC "-//W3C//DTD SVG 1.1 Basic//EN" "http://www.w3.org/Graphics/SVG/1.1/DTD/svg11-basic.dtd">
<svg version="1.1" baseProfile="basic" id="layer" xmlns="http://www.w3.org/2000/svg" xmlns:xlink="http://www.w3.org/1999/xlink"
	 x="0px" y="0px" viewBox="0 0 79.9814911 79.9814911" xml:space="preserve">
<symbol  id="a" viewBox="-42.9500008 -42.9500008 85.9000015 85.9000015">
	<rect x="-42.9500008" y="-42.9500008" fill="#7B90D2" width="85.9000015" height="85.9000015"/>
	<g opacity="0.95">
		<g>
			<polygon fill="#FFFFFF" points="20.75,-3.75 -1.8500023,24.4500008 3.8499985,5.3499985 -9.25,5.3499985 8.0499992,-24.5500011 
				19.1499977,-24.5500011 6.75,-3.75 			"/>
			<path fill="#FFFFFF" d="M18.75,2.4500008v14.1999969c0.0113792,0.8722763-0.6865158,1.5886192-1.5587921,1.5999985
				c-0.0137367,0.0001793-0.0274734,0.0001793-0.0412064,0H6.0499992l2.5-3.0999985h7V6.3499985L18.75,2.4500008z"/>
			<path fill="#FFFFFF" d="M18.75-11.3500004V-5.75h-3.1000023v-1H11.25l3.7000008-6.2000008h2.2000008
				C18.0222778-12.96138,18.7386208-12.263485,18.75-11.3912086C18.7501793-11.3774719,18.7501793-11.3637352,18.75-11.3500004z"/>
			<path fill="#FFFFFF" d="M-1.3500023-12.9500008L-4.9500008-6.75h-12.2000008v21.8999977h15.6000023l-0.9000015,3.0999985
				h-16.2000008c-0.8722763,0.0113792-1.5886211-0.6865158-1.6000004-1.5587921
				c-0.0001793-0.0137329-0.0001793-0.0274696,0-0.0412064v-28c-0.0113792-0.8722763,0.6865158-1.5886192,1.5587921-1.5999985
				c0.0137367-0.0001793,0.0274734-0.0001793,0.0412083,0H-1.3500023z M-10.2500038-9.75
				c0-0.7179718-0.5820274-1.3000011-1.2999992-1.3000011c-0.7179699,0-1.3000011,0.5820293-1.3000011,1.3000011
				c0,0.717968,0.5820293,1.2999992,1.2999992,1.2999992c0.0000019,0,0.0000019,0,0.0000019,0
				C-10.8373413-8.4626579-10.262661-9.0373383-10.2500038-9.75z M-14.4500046-9.75
				c0-0.7179718-0.5820293-1.3000011-1.2999992-1.3000011S-17.050005-10.4679718-17.050005-9.75
				c0,0.717968,0.5820293,1.2999992,1.2999992,1.2999992c0.0000019,0,0.0000019,0,0.0000019,0
				c0.6958027,0.022171,1.277832-0.5239182,1.3000031-1.2197189C-14.4491482-9.6964722-14.4491482-9.7232475-14.4500046-9.75z"/>
		</g>
	</g>
</symbol>
<use xlink:href="#a"  width="85.9000015" height="85.9000015" x="-42.9500008" y="-42.9500008" transform="matrix(0.9311 0 0 0.9311 39.9907455 39.9907455)" overflow="visible"/>
</svg>
