<?xml version="1.0" encoding="utf-8"?>
<!-- Generator: Adobe Illustrator 21.1.0, SVG Export Plug-In . SVG Version: 6.00 Build 0)  -->
<svg version="1.1" xmlns="http://www.w3.org/2000/svg" xmlns:xlink="http://www.w3.org/1999/xlink" x="0px" y="0px"
	 viewBox="0 0 80 80" style="enable-background:new 0 0 80 80;" xml:space="preserve">
<style type="text/css">
	.st0{fill:#7B90D2;}
	.st1{opacity:0.95;}
	.st2{fill:#FFFFFF;}
	.st3{fill:#87B537;}
	.st4{fill:#6B6B70;}
	.st5{fill:#EFEFEF;}
	.st6{fill:#808088;}
	.st7{fill:#0C0C0C;}
	.st8{fill:#7C878E;}
	.st9{fill:#FF5577;}
	.st10{opacity:0.4;enable-background:new    ;}
	.st11{fill:none;stroke:#808088;stroke-miterlimit:10;}
	.st12{fill:#03426D;}
	.st13{fill:#013E6E;}
	.st14{fill:url(#SVGID_1_);}
	.st15{fill:url(#SVGID_2_);}
	.st16{fill:url(#SVGID_3_);}
	.st17{fill:url(#SVGID_4_);}
	.st18{fill:url(#SVGID_5_);}
	.st19{fill:url(#SVGID_6_);}
	.st20{fill:url(#SVGID_7_);}
	.st21{fill:url(#SVGID_8_);}
	.st22{fill:url(#SVGID_9_);}
	.st23{fill:url(#SVGID_10_);}
	.st24{fill:url(#SVGID_11_);}
	.st25{fill:url(#SVGID_12_);}
	.st26{fill:url(#SVGID_13_);}
	.st27{fill:url(#SVGID_14_);}
	.st28{fill:url(#SVGID_15_);}
	.st29{fill:url(#SVGID_16_);}
	.st30{fill:url(#SVGID_17_);}
	.st31{fill:url(#SVGID_18_);}
	.st32{fill:url(#SVGID_19_);}
	.st33{fill:url(#SVGID_20_);}
	.st34{fill:url(#SVGID_21_);}
	.st35{fill:url(#SVGID_22_);}
	.st36{fill:url(#SVGID_23_);}
	.st37{fill:url(#SVGID_24_);}
	.st38{fill:url(#SVGID_25_);}
	.st39{fill:url(#SVGID_26_);}
	.st40{fill:url(#SVGID_27_);}
	.st41{fill:url(#SVGID_28_);}
	.st42{fill:url(#SVGID_29_);}
	.st43{fill:url(#SVGID_30_);}
	.st44{fill:url(#SVGID_31_);}
	.st45{fill:url(#SVGID_32_);}
	.st46{fill:url(#SVGID_33_);}
	.st47{fill:url(#SVGID_34_);}
	.st48{fill:url(#SVGID_35_);}
	.st49{fill:url(#SVGID_36_);}
	.st50{fill:url(#SVGID_37_);}
	.st51{fill:url(#SVGID_38_);}
	.st52{fill:url(#SVGID_39_);}
	.st53{fill:url(#SVGID_40_);}
	.st54{fill:url(#SVGID_41_);}
	.st55{fill:url(#SVGID_42_);}
	.st56{fill:url(#SVGID_43_);}
	.st57{fill:url(#SVGID_44_);}
	.st58{fill:url(#SVGID_45_);}
	.st59{fill:url(#SVGID_46_);}
	.st60{fill:url(#SVGID_47_);}
	.st61{fill:url(#SVGID_48_);}
	.st62{fill:url(#SVGID_49_);}
	.st63{fill:url(#SVGID_50_);}
	.st64{fill:url(#SVGID_51_);}
	.st65{fill:url(#SVGID_52_);}
	.st66{fill:url(#SVGID_53_);}
	.st67{fill:url(#SVGID_54_);}
	.st68{fill:url(#SVGID_55_);}
	.st69{fill:url(#SVGID_56_);}
	.st70{fill:url(#SVGID_57_);}
	.st71{fill:url(#SVGID_58_);}
	.st72{fill:url(#SVGID_59_);}
	.st73{fill:url(#SVGID_60_);}
	.st74{fill:url(#SVGID_61_);}
	.st75{fill:url(#SVGID_62_);}
	.st76{fill:url(#SVGID_63_);}
	.st77{fill:url(#SVGID_64_);}
	.st78{fill:url(#SVGID_65_);}
	.st79{fill:url(#SVGID_66_);}
	.st80{fill:url(#SVGID_67_);}
	.st81{fill:url(#SVGID_68_);}
	.st82{fill:url(#SVGID_69_);}
	.st83{fill:url(#SVGID_70_);}
	.st84{fill:url(#SVGID_71_);}
	.st85{fill:url(#SVGID_72_);}
	.st86{fill:url(#SVGID_73_);}
	.st87{fill:url(#SVGID_74_);}
	.st88{fill:url(#SVGID_75_);}
	.st89{fill:url(#SVGID_76_);}
	.st90{fill:url(#SVGID_77_);}
	.st91{fill:url(#SVGID_78_);}
	.st92{fill:url(#SVGID_79_);}
	.st93{fill:url(#SVGID_80_);}
	.st94{fill:url(#SVGID_81_);}
	.st95{fill:url(#SVGID_82_);}
	.st96{fill:url(#SVGID_83_);}
	.st97{fill:url(#SVGID_84_);}
	.st98{fill:url(#SVGID_85_);}
	.st99{fill:url(#SVGID_86_);}
	.st100{fill:url(#SVGID_87_);}
	.st101{fill:url(#SVGID_88_);}
	.st102{fill:url(#SVGID_89_);}
	.st103{fill:url(#SVGID_90_);}
	.st104{fill:url(#SVGID_91_);}
	.st105{fill:url(#SVGID_92_);}
	.st106{fill:url(#SVGID_93_);}
	.st107{fill:url(#SVGID_94_);}
	.st108{fill:url(#SVGID_95_);}
	.st109{fill:url(#SVGID_96_);}
	.st110{fill:url(#SVGID_97_);}
	.st111{fill:url(#SVGID_98_);}
	.st112{fill:#231815;}
	.st113{fill:#040000;}
	.st114{opacity:0.4;}
	.st115{opacity:0.4;fill:#808088;enable-background:new    ;}
	.st116{fill:#939393;}
	.st117{fill:none;stroke:#FFFFFF;stroke-width:2.5;stroke-linecap:round;stroke-linejoin:round;stroke-miterlimit:10;}
	.st118{enable-background:new    ;}
	.st119{fill:none;stroke:#FFFDFD;stroke-width:30;stroke-linecap:round;stroke-linejoin:round;}
	.st120{fill:#EDB23A;}
	.st121{fill:#568CC5;}
	.st122{fill:#0E9794;}
	.st123{fill:#565656;}
	.st124{fill:#DCE7EA;}
	.st125{fill:#1BB2A7;}
	.st126{fill:#E9611E;}
	.st127{fill:#DD5252;}
	.st128{fill:#F4B62A;}
	.st129{fill:#155D84;}
	.st130{fill:#ED7540;}
	.st131{fill:#656464;}
	.st132{fill:#4C4948;}
	.st133{fill:url(#SVGID_99_);}
	.st134{fill:url(#SVGID_100_);}
	.st135{fill:url(#SVGID_101_);}
	.st136{fill:url(#SVGID_102_);}
	.st137{fill:#FFFDFD;}
	.st138{fill:url(#SVGID_103_);}
	.st139{fill:none;}
	.st140{fill:url(#SVGID_104_);}
	.st141{fill:url(#SVGID_105_);}
	.st142{fill:url(#SVGID_106_);}
	.st143{fill:url(#SVGID_107_);}
	.st144{fill:url(#SVGID_108_);}
	.st145{fill:url(#SVGID_109_);}
	.st146{fill:url(#SVGID_110_);}
	.st147{fill:url(#SVGID_111_);}
	.st148{fill:url(#SVGID_112_);}
	.st149{fill:url(#SVGID_113_);}
	.st150{fill:url(#SVGID_114_);}
	.st151{fill:url(#SVGID_115_);}
	.st152{fill:url(#SVGID_116_);}
	.st153{fill:url(#SVGID_117_);}
	.st154{fill:url(#SVGID_118_);}
	.st155{fill:url(#SVGID_119_);}
	.st156{fill:url(#SVGID_120_);}
	.st157{fill:url(#SVGID_121_);}
	.st158{fill:url(#SVGID_122_);}
	.st159{fill:url(#SVGID_123_);}
	.st160{fill:url(#SVGID_124_);}
	.st161{fill:url(#SVGID_125_);}
	.st162{fill:url(#SVGID_126_);}
	.st163{fill:url(#SVGID_127_);}
	.st164{fill:url(#SVGID_128_);}
	.st165{fill:url(#SVGID_129_);}
	.st166{fill:url(#SVGID_130_);}
	.st167{fill:url(#SVGID_131_);}
	.st168{fill:url(#SVGID_132_);}
	.st169{fill:url(#SVGID_133_);}
	.st170{fill:url(#SVGID_134_);}
	.st171{fill:url(#SVGID_135_);}
	.st172{fill:url(#SVGID_136_);}
	.st173{fill:url(#SVGID_137_);}
	.st174{fill:url(#SVGID_138_);}
	.st175{fill:url(#SVGID_139_);}
	.st176{opacity:0.9;}
	.st177{opacity:0.9;enable-background:new    ;}
	.st178{fill:#CCCCCF;}
	.st179{fill:#FDFDFD;}
	.st180{fill:#808088;enable-background:new    ;}
	.st181{opacity:0.4;fill:#808088;}
	.st182{fill:#282828;}
	.st183{fill:#F4AE00;}
	.st184{opacity:0.95;fill:#FFFFFF;}
	.st185{fill:#48ABD6;}
	.st186{fill:#EDEDED;}
	.st187{fill:#DD0000;}
	.st188{fill:#186885;}
	.st189{fill:#FFFFFF;stroke:#186885;stroke-width:2;stroke-miterlimit:10;}
	.st190{fill:#F2F2F2;}
	.st191{opacity:0.95;fill:#48ABD6;}
	.st192{fill:#484848;}
	.st193{opacity:0.7;}
	.st194{opacity:0.5;}
	.st195{fill:#DD2204;}
	.st196{fill:none;stroke:#CCCCCF;stroke-miterlimit:10;}
	.st197{fill:none;stroke:#03E2C1;stroke-width:2;stroke-miterlimit:10;}
	.st198{fill:#03E2C1;}
	.st199{fill:#0A5B89;}
	.st200{display:none;}
	.st201{display:inline;fill:#1BB2A7;}
	.st202{display:inline;fill:#52D1C5;}
	.st203{fill:#3ADDCD;}
	.st204{fill:none;stroke:#FFFFFF;stroke-miterlimit:10;}
	.st205{fill:none;stroke:#FFFFFF;stroke-width:2;stroke-miterlimit:10;}
	.st206{fill:none;stroke:#FFFFFF;stroke-width:0.5;stroke-miterlimit:10;}
	.st207{display:inline;fill:#FFFFFF;}
	.st208{display:inline;fill:none;stroke:#FFFFFF;stroke-width:0.5;stroke-miterlimit:10;}
	.st209{fill:#FFFFFF;stroke:#FFFFFF;stroke-width:0.5;stroke-miterlimit:10;}
	.st210{fill:#FFFFFF;enable-background:new    ;}
	.st211{fill:none;stroke:#F92DA7;stroke-miterlimit:10;}
	.st212{display:inline;fill:#FF5577;}
	.st213{display:inline;opacity:0.4;}
	.st214{display:inline;fill:#808088;}
	.st215{fill:#F92DA7;}
	.st216{fill:#2FF7B9;}
	.st217{fill:#DCDCDC;}
	.st218{fill:#00ABF7;}
</style>
<symbol  id="ウェブアクセラレータ_2_" viewBox="-43 -43 85.9 85.9">
	<rect x="-43" y="-43" class="st0" width="85.9" height="85.9"/>
	<g id="XMLID_2172_" class="st1">
		<g id="XMLID_2174_">
			<polygon id="XMLID_2191_" class="st2" points="20.7,3.7 -1.9,-24.5 3.8,-5.4 -9.3,-5.4 8,24.5 19.1,24.5 6.7,3.7 			"/>
			<path id="XMLID_2183_" class="st2" d="M18.7-2.5v-14.2c0-0.9-0.7-1.6-1.6-1.6H6l2.5,3.1h7v8.8L18.7-2.5z"/>
			<path id="XMLID_2176_" class="st2" d="M18.7,11.3V5.7h-3.1v1h-4.4l3.7,6.2h2.2C18,12.9,18.7,12.2,18.7,11.3z"/>
			<path id="XMLID_2175_" class="st2" d="M-1.4,12.9L-5,6.7h-12.2v-21.9h15.6l-0.9-3.1h-16.2c-0.9,0-1.6,0.7-1.6,1.6v28
				c0,0.9,0.7,1.6,1.6,1.6L-1.4,12.9L-1.4,12.9z M-10.3,9.7c0,0.7-0.6,1.3-1.3,1.3s-1.3-0.6-1.3-1.3s0.6-1.3,1.3-1.3
				C-10.9,8.4-10.3,9-10.3,9.7z M-14.5,9.7c0,0.7-0.6,1.3-1.3,1.3c-0.7,0-1.3-0.6-1.3-1.3c0-0.7,0.6-1.3,1.3-1.3
				C-15,8.4-14.5,9-14.5,9.7z"/>
		</g>
		<g id="XMLID_2173_">
		</g>
	</g>
</symbol>
<symbol  id="クラウド載ってる_2" viewBox="-17.3 -17.3 34.6 34.6">
	<polyline class="st3" points="-17.3,-17.3 -17.3,17.3 17.3,17.3 	"/>
	<g class="st1">
		<g>
			<path class="st2" d="M-2.7,13.5c-1.5,0.9-3.5,0.4-4.5-1c-1.6,0.2-3.1-0.6-3.9-2C-11.8,9-11.6,7.3-10.6,6
				c-0.9-0.2-1.7-0.8-2.1-1.6c-0.9-1.7-0.3-3.8,1.3-4.7c1.5-0.9,3.5-0.4,4.5,1c1.6-0.2,3.1,0.6,3.9,2c0.8,1.5,0.6,3.2-0.4,4.5
				C-2.6,7.4-1.8,8-1.3,8.8C-0.4,10.4-1,12.5-2.7,13.5z M-2.3,9.3c-0.4-0.7-1.2-1.2-2-1.2c-0.3,0-0.5-0.2-0.6-0.4
				C-4.9,7.7-5,7.6-5,7.5C-5.1,7.3-5,7-4.8,6.8C-3.7,6-3.4,4.4-4.1,3.2c-0.6-1.1-1.8-1.6-3-1.4c-0.3,0.1-0.5-0.1-0.6-0.3
				c0,0,0,0,0,0c-0.6-1.1-2-1.5-3.1-0.9c-1.1,0.6-1.5,2-0.9,3.1c0.4,0.7,1.2,1.2,2,1.2c0.3,0,0.5,0.2,0.6,0.4c0,0.1,0.1,0.2,0.1,0.3
				c0.1,0.2,0,0.5-0.2,0.7c-1.1,0.8-1.4,2.4-0.7,3.6c0.6,1.1,1.8,1.6,3,1.4c0.2-0.1,0.5,0.1,0.6,0.3c0,0,0,0,0,0
				c0.6,1.1,2,1.5,3.1,0.9C-2.1,11.8-1.7,10.4-2.3,9.3z"/>
			<path class="st2" d="M-7,12.4L-7,12.3l-0.1,0c-1.5,0.2-2.9-0.6-3.7-1.9c-0.8-1.3-0.6-3,0.4-4.2l0.2-0.3l-0.3-0.1
				c-0.8-0.2-1.6-0.8-2-1.5c-0.9-1.6-0.3-3.5,1.2-4.4c1.4-0.8,3.3-0.4,4.2,0.9L-7,0.9l0.1,0C-5.4,0.7-4,1.5-3.3,2.8
				c0.8,1.3,0.6,3-0.4,4.2l-0.2,0.3l0.3,0.1c0.8,0.2,1.6,0.8,2,1.5c0.9,1.6,0.3,3.5-1.2,4.4C-4.2,14.1-6,13.7-7,12.4z M-6.5,11.7
				L-6.5,11.7c0.7,1.2,2.2,1.7,3.4,1c1.2-0.7,1.6-2.2,1-3.4C-2.6,8.4-3.4,8-4.4,8c-0.2,0-0.3-0.1-0.3-0.3l-0.1-0.3
				c-0.1-0.2,0-0.3,0.1-0.4c1.2-0.9,1.5-2.6,0.8-3.9c-0.7-1.2-2-1.7-3.3-1.5c-0.2,0-0.3,0-0.4-0.2c0,0,0,0,0,0
				c-0.7-1.2-2.2-1.6-3.4-1c-0.6,0.3-1,0.9-1.2,1.5c-0.2,0.6-0.1,1.3,0.2,1.9c0.4,0.8,1.3,1.3,2.2,1.3c0.2,0,0.3,0.1,0.3,0.3
				l0.1,0.3c0.1,0.2,0,0.3-0.1,0.4c-1.2,0.9-1.5,2.6-0.8,3.9c0.7,1.2,2,1.7,3.3,1.5C-6.8,11.5-6.6,11.5-6.5,11.7z"/>
		</g>
	</g>
</symbol>
<g id="レイヤー_1">
	<g id="幅狭1">
	</g>
	<g id="専鯖">
	</g>
	<g id="レンサバ_1_">
	</g>
	<g id="ウェブアクセラレータ_1_">
	</g>
	<g id="sakura.io_1_">
	</g>
	<g id="クラウド_1_">
	</g>
	<g id="vps_1_">
	</g>
</g>
<g id="レイヤー_2">
	<g id="レイヤー_3">
	</g>
</g>
<g id="レイヤー_4">
	<g id="レイヤー_5">
		<g id="レンサバ">
		</g>
		<g id="サポート">
		</g>
		<g id="会員_2">
		</g>
		<g id="専鯖高火力">
		</g>
		<g id="ウェブアクセラレータ">
		</g>
		<g id="sakura.io">
		</g>
		<g id="クラウド">
		</g>
		<g id="オブジェクトストレージ_2">
		</g>
		<g id="vps">
		</g>
		<g id="コンテンツ配信">
		</g>
		<g id="高火力">
		</g>
	</g>
</g>
<g id="レイヤー_6">
</g>
<g id="レイヤー_7">
	
		<use xlink:href="#ウェブアクセラレータ_2_"  width="85.9" height="85.9" id="XMLID_845_" x="-43" y="-43" transform="matrix(0.9311 0 0 -0.9311 40 40)" style="overflow:visible;"/>
</g>
</svg>
